<svg xmlns="http://www.w3.org/2000/svg" version="1.1" xmlns:xlink="http://www.w3.org/1999/xlink" xmlns:svgjs="http://svgjs.com/svgjs" width="152" height="185"><svg width="152" height="185" viewBox="0 0 152 185" fill="none" xmlns="http://www.w3.org/2000/svg">
<path d="M3.84 107.56C3.84 113.875 5.376 119.336 8.448 123.944C11.52 128.552 15.744 132.093 21.12 134.568C26.496 137.043 32.5973 138.28 39.424 138.28C46.2507 138.28 52.352 137.043 57.728 134.568C63.104 132.093 67.328 128.552 70.4 123.944C73.472 119.336 75.008 113.875 75.008 107.56C75.008 101.16 73.472 95.656 70.4 91.048C67.328 86.44 63.104 82.8987 57.728 80.424C52.352 77.9493 46.2507 76.712 39.424 76.712C32.5973 76.712 26.496 77.9493 21.12 80.424C15.744 82.8987 11.52 86.44 8.448 91.048C5.376 95.656 3.84 101.16 3.84 107.56ZM29.568 107.56C29.568 105.171 30.0373 103.165 30.976 101.544C31.9147 99.9227 33.1093 98.6853 34.56 97.832C36.096 96.9787 37.7173 96.552 39.424 96.552C41.1307 96.552 42.7093 96.9787 44.16 97.832C45.696 98.6853 46.9333 99.9227 47.872 101.544C48.8107 103.165 49.28 105.171 49.28 107.56C49.28 109.949 48.8107 111.955 47.872 113.576C46.9333 115.197 45.696 116.435 44.16 117.288C42.7093 118.056 41.1307 118.44 39.424 118.44C37.7173 118.44 36.096 118.056 34.56 117.288C33.1093 116.435 31.9147 115.197 30.976 113.576C30.0373 111.955 29.568 109.949 29.568 107.56ZM76.955 107.56C76.955 113.875 78.491 119.336 81.563 123.944C84.635 128.552 88.859 132.093 94.235 134.568C99.611 137.043 105.712 138.28 112.539 138.28C119.366 138.28 125.467 137.043 130.843 134.568C136.219 132.093 140.443 128.552 143.515 123.944C146.587 119.336 148.123 113.875 148.123 107.56C148.123 101.16 146.587 95.656 143.515 91.048C140.443 86.44 136.219 82.8987 130.843 80.424C125.467 77.9493 119.366 76.712 112.539 76.712C105.712 76.712 99.611 77.9493 94.235 80.424C88.859 82.8987 84.635 86.44 81.563 91.048C78.491 95.656 76.955 101.16 76.955 107.56ZM102.683 107.56C102.683 105.171 103.152 103.165 104.091 101.544C105.03 99.9227 106.224 98.6853 107.675 97.832C109.211 96.9787 110.832 96.552 112.539 96.552C114.246 96.552 115.824 96.9787 117.275 97.832C118.811 98.6853 120.048 99.9227 120.987 101.544C121.926 103.165 122.395 105.171 122.395 107.56C122.395 109.949 121.926 111.955 120.987 113.576C120.048 115.197 118.811 116.435 117.275 117.288C115.824 118.056 114.246 118.44 112.539 118.44C110.832 118.44 109.211 118.056 107.675 117.288C106.224 116.435 105.03 115.197 104.091 113.576C103.152 111.955 102.683 109.949 102.683 107.56Z" fill="white"></path>
<path d="M30 69.5C30 66.8079 31.1769 64.1422 33.4635 61.655C35.7501 59.1678 39.1016 56.9079 43.3266 55.0043C47.5517 53.1007 52.5676 51.5907 58.0879 50.5605C63.6082 49.5303 69.5249 49 75.5 49C81.4752 49 87.3918 49.5303 92.9121 50.5605C98.4324 51.5907 103.448 53.1007 107.673 55.0043C111.898 56.9079 115.25 59.1678 117.537 61.655C119.823 64.1422 121 66.8079 121 69.5L103.735 69.5C103.735 67.8294 103.005 66.1752 101.586 64.6318C100.167 63.0883 98.0871 61.6859 95.4653 60.5047C92.8434 59.3234 89.7308 58.3863 86.3051 57.747C82.8795 57.1077 79.2079 56.7787 75.5 56.7787C71.7921 56.7787 68.1205 57.1077 64.6949 57.747C61.2692 58.3863 58.1566 59.3234 55.5347 60.5047C52.9129 61.6859 50.8331 63.0883 49.4141 64.6318C47.9952 66.1752 47.2649 67.8294 47.2649 69.5L30 69.5Z" fill="white"></path>
</svg><style>@media (prefers-color-scheme: light) { :root { filter: contrast(1) brightness(0.1); } }
@media (prefers-color-scheme: dark) { :root { filter: contrast(1) brightness(1); } }
</style></svg>